<svg xmlns="http://www.w3.org/2000/svg" viewBox="0 0 720 640" fill="none">
  <rect width="720" height="640" rx="48" fill="#f6efdd"/>
  <path d="M0 430c92-22 160-26 240 4 82 31 156 24 240-6 98-35 164-30 240 0v212H0V430z" fill="#8cb36c"/>
  <path d="M0 490c88-18 164-15 240 20 80 36 152 40 240 8 90-32 165-29 240 6v116H0V490z" fill="#5f8b47"/>
  <circle cx="574" cy="138" r="56" fill="#d9b65f"/>
  <path d="M158 346l88-156 88 156H158z" fill="#d7a86e"/>
  <rect x="190" y="344" width="112" height="94" rx="12" fill="#fff6e5"/>
  <rect x="220" y="374" width="52" height="64" rx="8" fill="#c15723"/>
  <path d="M422 268c46-62 94-72 126-18 18 30 19 82-22 132-40 49-88 77-118 86-30-17-64-58-76-110-11-49-2-92 30-116 26-20 40-18 60 26z" fill="#4f7c55"/>
</svg>
